<svg width="435" height="788" viewBox="433 223 435 788" xmlns="http://www.w3.org/2000/svg">
  <path d="M 545 917 L 537 930 L 533 951 L 537 970 L 543 981 L 547 982 L 555 963 L 556 941 L 551 924 L 547 917 Z M 442 917 L 434 937 L 433 957 L 438 975 L 442 982 L 445 982 L 454 964 L 456 945 L 452 929 L 446 918 Z M 490 888 L 470 893 L 453 904 L 465 925 L 469 940 L 468 965 L 463 979 L 453 995 L 463 1003 L 476 1009 L 485 1011 L 504 1011 L 516 1008 L 528 1002 L 536 995 L 524 974 L 520 956 L 522 932 L 526 921 L 536 904 L 517 892 L 507 889 Z M 437 861 L 437 899 L 439 899 L 452 887 L 467 879 L 488 874 L 508 875 L 519 878 L 532 884 L 551 898 L 550 860 Z M 437 798 L 437 846 L 551 846 L 551 798 Z M 437 736 L 438 784 L 551 784 L 550 735 Z M 797 262 L 758 238 L 714 225 L 574 223 L 512 244 L 467 285 L 446 324 L 437 362 L 437 721 L 553 721 L 573 683 L 612 645 L 659 620 L 767 585 L 825 536 L 859 473 L 868 394 L 847 323 L 823 287 Z M 497 562 L 505 562 L 582 590 L 587 594 L 591 601 L 589 613 L 553 644 L 518 679 L 511 682 L 498 682 L 493 680 L 487 675 L 484 668 L 484 576 L 487 569 Z M 732 506 L 744 507 L 751 513 L 754 519 L 754 529 L 751 535 L 740 542 L 733 542 L 726 539 L 721 534 L 718 527 L 721 514 L 727 508 Z M 675 506 L 686 506 L 691 508 L 696 513 L 699 520 L 699 527 L 695 535 L 683 542 L 678 542 L 668 537 L 662 526 L 665 514 Z M 618 506 L 631 506 L 635 508 L 642 517 L 643 526 L 641 532 L 632 540 L 617 540 L 609 533 L 607 529 L 607 517 L 610 512 Z M 560 506 L 575 506 L 583 513 L 585 517 L 585 528 L 581 535 L 574 540 L 561 540 L 557 538 L 550 529 L 550 516 L 554 510 Z M 761 454 L 772 454 L 776 456 L 784 465 L 784 478 L 782 482 L 773 489 L 760 489 L 755 486 L 749 478 L 749 466 L 751 462 Z M 703 454 L 715 454 L 719 456 L 726 464 L 727 476 L 724 482 L 717 488 L 704 489 L 698 486 L 692 479 L 692 464 L 699 456 Z M 646 453 L 655 453 L 660 455 L 667 462 L 669 467 L 669 475 L 667 480 L 657 488 L 644 488 L 637 483 L 633 476 L 634 463 L 640 456 Z M 586 453 L 598 453 L 602 455 L 610 465 L 610 476 L 608 480 L 600 487 L 587 488 L 580 484 L 575 477 L 575 464 L 577 460 Z M 526 452 L 535 452 L 540 454 L 549 465 L 548 477 L 538 487 L 524 487 L 516 481 L 513 475 L 513 465 L 520 455 Z M 759 402 L 773 401 L 777 403 L 785 413 L 785 424 L 783 428 L 773 436 L 761 436 L 756 433 L 750 425 L 750 412 Z M 706 400 L 713 400 L 720 403 L 727 412 L 726 426 L 720 433 L 714 436 L 705 436 L 700 434 L 691 422 L 691 415 L 694 408 L 699 403 Z M 646 400 L 659 401 L 666 407 L 669 413 L 669 423 L 667 427 L 657 435 L 649 436 L 641 433 L 633 422 L 633 414 L 635 409 L 640 403 Z M 589 399 L 595 399 L 602 402 L 610 412 L 609 425 L 603 432 L 597 435 L 587 435 L 578 429 L 574 421 L 574 413 L 577 407 L 583 401 Z M 526 399 L 536 399 L 544 404 L 549 413 L 549 421 L 546 427 L 541 432 L 534 435 L 522 433 L 513 422 L 514 409 L 520 402 Z M 765 347 L 772 347 L 779 350 L 785 356 L 787 362 L 785 374 L 778 381 L 773 383 L 763 383 L 759 381 L 751 371 L 752 357 L 756 352 Z M 706 347 L 716 347 L 722 350 L 728 357 L 728 372 L 718 382 L 704 382 L 694 372 L 693 360 L 697 353 Z M 647 347 L 661 348 L 667 353 L 671 361 L 669 373 L 665 378 L 658 382 L 647 382 L 643 380 L 635 370 L 636 356 Z M 590 346 L 598 346 L 604 349 L 609 354 L 612 362 L 609 374 L 604 379 L 597 382 L 590 382 L 583 379 L 576 369 L 577 356 L 583 349 Z M 526 346 L 540 347 L 549 357 L 549 370 L 547 374 L 538 381 L 526 381 L 522 379 L 515 371 L 515 356 L 522 348 Z M 731 295 L 744 295 L 748 297 L 755 306 L 755 319 L 750 326 L 743 330 L 732 330 L 728 328 L 720 318 L 720 307 L 724 300 Z M 678 294 L 686 294 L 691 296 L 697 301 L 700 307 L 700 317 L 697 323 L 687 330 L 677 330 L 667 323 L 664 317 L 664 307 L 666 303 L 673 296 Z M 620 294 L 634 295 L 641 301 L 644 307 L 644 316 L 641 322 L 632 329 L 620 329 L 616 327 L 608 317 L 608 306 L 610 302 Z M 564 293 L 572 293 L 577 295 L 582 299 L 586 306 L 585 319 L 579 326 L 573 329 L 563 329 L 554 323 L 550 315 L 550 307 L 552 302 L 559 295 Z" fill="#BFFF00" fill-rule="evenodd"/>
</svg>
